<?xml version="1.0" encoding="utf-8"?><svg viewBox="0 0 34 34" xmlns="http://www.w3.org/2000/svg" xmlns:xlink="http://www.w3.org/1999/xlink"><style>:root>svg{display:none}:root>svg:target{display:block}</style><svg viewBox="-1.25 -1.25 42.5 42.5" fill="rgba(0,0,0,0.03)" id="svg-bg" xmlns="http://www.w3.org/2000/svg"><path d="M0 38.59l2.83-2.83 1.41 1.41L1.41 40H0v-1.41zM0 1.4l2.83 2.83 1.41-1.41L1.41 0H0v1.41zM38.59 40l-2.83-2.83 1.41-1.41L40 38.59V40h-1.41zM40 1.41l-2.83 2.83-1.41-1.41L38.59 0H40v1.41zM20 18.6l2.83-2.83 1.41 1.41L21.41 20l2.83 2.83-1.41 1.41L20 21.41l-2.83 2.83-1.41-1.41L18.59 20l-2.83-2.83 1.41-1.41L20 18.59z"/></svg><svg viewBox="-11.95 -11.95 406.24 251.4" id="svg-logo" xmlns="http://www.w3.org/2000/svg"><path d="M382.344 200.167v27.344h-90.156v-27.344l14.062-1.875-43.75-65.781h-25.468v62.968l23.125 4.688v27.344h-97.5L70.782 74.386l-.938.156v120.937l24.375 4.688v27.344H0v-27.344l24.219-4.688V32.198L0 27.511V.011h69.844l91.875 153.125.937-.157V32.198l-24.375-4.687V.011h121.876v27.5l-23.125 4.687v60.781h19.843l43.75-63.593-13.437-1.875V.011h90.156v27.5l-24.687 4.214-55.938 74.692 62.812 89.844z"/></svg></svg>