<svg xmlns="http://www.w3.org/2000/svg" width="512" height="512" viewBox="0 0 512 512">
  <path fill-rule="evenodd" fill="#222" d="M0 0h512v512H0V0z"/>
  <path fill-rule="evenodd" fill="#FFF" d="M449.125 336.542v27.344h-90.156v-27.344l14.062-1.875-43.75-65.781h-25.468v62.968l23.125 4.688v27.344H229.437l-91.875-153.125-.937.156v120.937L161 336.542v27.344H66.781v-27.344L91 331.854V168.573l-24.219-4.687v-27.5h69.844L228.5 289.511l.937-.157V168.573l-24.375-4.687v-27.5H326.938v27.5l-23.125 4.687v60.781h19.843l43.75-63.593-13.437-1.875v-27.5h90.156v27.5l-24.687 4.218-55.938 74.688 62.813 89.844 22.812 3.906z"/>
</svg>